<svg width="117" height="38" viewBox="0 0 117 38" fill="none" xmlns="http://www.w3.org/2000/svg">
<path d="M27.7031 24.9199H21.4551L20.1016 29.5H16.6836L23.1641 9.59375H26.0762L32.4473 29.5H29.043L27.7031 24.9199ZM22.2891 22.1035H26.8965L24.6133 14.2285L22.2891 22.1035ZM47.9375 22.2539C47.9375 22.9375 47.8874 23.5892 47.7871 24.209C47.6868 24.8288 47.541 25.403 47.3496 25.9316C47.1309 26.5605 46.8392 27.1302 46.4746 27.6406C46.11 28.151 45.6725 28.5749 45.1621 28.9121C44.752 29.1855 44.2917 29.3952 43.7812 29.541C43.2799 29.696 42.7331 29.7734 42.1406 29.7734C41.5391 29.7734 40.9922 29.7005 40.5 29.5547C40.0078 29.4089 39.5658 29.1947 39.1738 28.9121C38.9733 28.7663 38.7819 28.6113 38.5996 28.4473C38.4264 28.2741 38.2578 28.0872 38.0938 27.8867L37.9434 29.5H34.9902V8.5H38.2578V16.1562C38.4492 15.9193 38.6589 15.7051 38.8867 15.5137C39.1146 15.3223 39.3607 15.1536 39.625 15.0078C39.9714 14.8164 40.3496 14.6751 40.7598 14.584C41.179 14.4837 41.6302 14.4336 42.1133 14.4336C42.7513 14.4336 43.3346 14.5202 43.8633 14.6934C44.401 14.8574 44.8841 15.0944 45.3125 15.4043C45.6771 15.6595 46.0007 15.974 46.2832 16.3477C46.5749 16.7122 46.8301 17.1133 47.0488 17.5508C47.3405 18.1615 47.5592 18.8405 47.7051 19.5879C47.86 20.3353 47.9375 21.1283 47.9375 21.9668V22.2539ZM44.6699 21.9668C44.6699 21.5475 44.6426 21.1419 44.5879 20.75C44.5423 20.349 44.474 19.9753 44.3828 19.6289C44.2552 19.2096 44.0866 18.8314 43.877 18.4941C43.6764 18.1478 43.403 17.8561 43.0566 17.6191C42.8288 17.4551 42.569 17.332 42.2773 17.25C41.9857 17.168 41.6576 17.127 41.293 17.127C40.8464 17.127 40.4453 17.1908 40.0898 17.3184C39.7344 17.4368 39.4245 17.61 39.1602 17.8379C38.9688 17.9928 38.7956 18.1751 38.6406 18.3848C38.4948 18.5853 38.3672 18.804 38.2578 19.041V25.166C38.3854 25.4395 38.5358 25.6901 38.709 25.918C38.8913 26.1367 39.0964 26.3327 39.3242 26.5059C39.5794 26.6882 39.8711 26.834 40.1992 26.9434C40.5365 27.0436 40.9102 27.0938 41.3203 27.0938C41.694 27.0938 42.0312 27.0482 42.332 26.957C42.6328 26.8568 42.9017 26.7246 43.1387 26.5605C43.4577 26.3327 43.7174 26.0456 43.918 25.6992C44.1276 25.3438 44.2871 24.9473 44.3965 24.5098C44.4876 24.1816 44.556 23.8262 44.6016 23.4434C44.6471 23.0605 44.6699 22.6641 44.6699 22.2539V21.9668ZM51.1504 21.9668C51.1504 20.8913 51.3053 19.8978 51.6152 18.9863C51.9251 18.0658 52.3763 17.2682 52.9688 16.5938C53.5521 15.9193 54.2676 15.3906 55.1152 15.0078C55.9629 14.625 56.929 14.4336 58.0137 14.4336C59.0983 14.4336 60.0645 14.625 60.9121 15.0078C61.7689 15.3906 62.4935 15.9193 63.0859 16.5938C63.6693 17.2682 64.1159 18.0658 64.4258 18.9863C64.7357 19.8978 64.8906 20.8913 64.8906 21.9668V22.2539C64.8906 23.3385 64.7357 24.3366 64.4258 25.248C64.1159 26.1595 63.6693 26.9525 63.0859 27.627C62.5026 28.3014 61.7826 28.8301 60.9258 29.2129C60.0781 29.5957 59.1165 29.7871 58.041 29.7871C56.9564 29.7871 55.9857 29.5957 55.1289 29.2129C54.2721 28.8301 53.5521 28.3014 52.9688 27.627C52.3763 26.9525 51.9251 26.1595 51.6152 25.248C51.3053 24.3366 51.1504 23.3385 51.1504 22.2539V21.9668ZM54.418 22.2539C54.418 22.9193 54.4863 23.5482 54.623 24.1406C54.7689 24.7331 54.9922 25.2526 55.293 25.6992C55.5846 26.1458 55.9583 26.5013 56.4141 26.7656C56.8698 27.0208 57.4121 27.1484 58.041 27.1484C58.6517 27.1484 59.1849 27.0208 59.6406 26.7656C60.0964 26.5013 60.4701 26.1458 60.7617 25.6992C61.0534 25.2526 61.2676 24.7331 61.4043 24.1406C61.5501 23.5482 61.623 22.9193 61.623 22.2539V21.9668C61.623 21.3197 61.5501 20.6999 61.4043 20.1074C61.2585 19.515 61.0443 18.9954 60.7617 18.5488C60.4609 18.1022 60.0827 17.7467 59.627 17.4824C59.1803 17.2181 58.6426 17.0859 58.0137 17.0859C57.3939 17.0859 56.8561 17.2181 56.4004 17.4824C55.9538 17.7467 55.5846 18.1022 55.293 18.5488C54.9922 18.9954 54.7689 19.515 54.623 20.1074C54.4863 20.6999 54.418 21.3197 54.418 21.9668V22.2539ZM78.2617 29.5L78.0703 27.4355C77.569 28.1738 76.9583 28.7526 76.2383 29.1719C75.5182 29.582 74.7116 29.7871 73.8184 29.7871C73.0527 29.7871 72.3509 29.6686 71.7129 29.4316C71.084 29.1855 70.5417 28.8073 70.0859 28.2969C69.6393 27.7865 69.293 27.1348 69.0469 26.3418C68.8008 25.5397 68.6777 24.5827 68.6777 23.4707V14.707H71.9453V23.498C71.9453 24.1816 71.9954 24.7559 72.0957 25.2207C72.196 25.6764 72.3555 26.041 72.5742 26.3145C72.793 26.597 73.071 26.7975 73.4082 26.916C73.7454 27.0345 74.1419 27.0938 74.5977 27.0938C75.0716 27.0938 75.4954 27.0436 75.8691 26.9434C76.2428 26.834 76.571 26.6882 76.8535 26.5059C77.0905 26.3418 77.3001 26.1504 77.4824 25.9316C77.6647 25.7038 77.8197 25.4531 77.9473 25.1797V14.707H81.2285V29.5H78.2617ZM91.9473 11.0977V14.707H97.5117V17.1543H91.9473V24.2227C91.9473 24.7695 92.0111 25.2298 92.1387 25.6035C92.2754 25.9681 92.4622 26.2552 92.6992 26.4648C92.9362 26.6836 93.2188 26.8385 93.5469 26.9297C93.875 27.0208 94.235 27.0664 94.627 27.0664C94.9095 27.0664 95.2012 27.0527 95.502 27.0254C95.8027 26.998 96.0944 26.9616 96.377 26.916C96.6504 26.8796 96.9056 26.8385 97.1426 26.793C97.3887 26.7383 97.5938 26.6927 97.7578 26.6562L98.1133 28.9121C97.8763 29.0579 97.5892 29.1855 97.252 29.2949C96.9238 29.3952 96.5684 29.4818 96.1855 29.5547C95.8027 29.6276 95.4017 29.6823 94.9824 29.7188C94.5723 29.7643 94.1621 29.7871 93.752 29.7871C93.0046 29.7871 92.3164 29.6868 91.6875 29.4863C91.0677 29.2767 90.5345 28.9531 90.0879 28.5156C89.6413 28.0872 89.2904 27.5358 89.0352 26.8613C88.7891 26.1868 88.666 25.3757 88.666 24.4277V17.1543H85.084V14.707H88.666V11.0977H91.9473Z" fill="url(#paint0_linear_27_25)"/>
<defs>
<linearGradient id="paint0_linear_27_25" x1="58.5" y1="0.5" x2="58.5" y2="37.5" gradientUnits="userSpaceOnUse">
<stop stop-color="#B3D574"/>
<stop offset="1" stop-color="#24B391"/>
</linearGradient>
</defs>
</svg>
