<svg width="186" height="186" viewBox="0 0 186 186" fill="none" xmlns="http://www.w3.org/2000/svg">
<path id="Subtract" fill-rule="evenodd" clip-rule="evenodd" d="M24 0H49.0135V6H24C14.0589 6 6 14.0589 6 24V49.0135L0 49.0135V24C0 10.7452 10.7452 0 24 0ZM0 138.243V162C0 175.255 10.7452 186 24 186H49.0135V180H24C14.0589 180 6 171.941 6 162V138.243H0ZM180 138.243V162C180 171.941 171.941 180 162 180H138.243V186H162C175.255 186 186 175.255 186 162V138.243H180ZM186 49.0135V24C186 10.7452 175.255 0 162 0H138.243V6H162C171.941 6 180 14.0589 180 24V49.0135L186 49.0135Z" fill="#38FF6F"/>
</svg>
